<?xml version="1.0" encoding="UTF-8"?>
<!DOCTYPE svg PUBLIC "-//W3C//DTD SVG 1.1//EN" "http://www.w3.org/Graphics/SVG/1.1/DTD/svg11.dtd">
<!-- Creator: CorelDRAW 2017 -->
<svg xmlns="http://www.w3.org/2000/svg" xml:space="preserve" width="75.8972mm" height="42.6mm" version="1.1" style="shape-rendering:geometricPrecision; text-rendering:geometricPrecision; image-rendering:optimizeQuality; fill-rule:evenodd; clip-rule:evenodd"
viewBox="0 0 15505.83 8703.2"
 xmlns:xlink="http://www.w3.org/1999/xlink">
 <defs>
  <style type="text/css">
   <![CDATA[
    .str1 {stroke:black;stroke-width:24.52;stroke-miterlimit:22.9256}
    .str0 {stroke:black;stroke-width:15.57;stroke-miterlimit:22.9256}
    .fil1 {fill:black}
    .fil0 {fill:black;fill-rule:nonzero}
   ]]>
  </style>
 </defs>
 <g id="Layer_x0020_1">
  <metadata id="CorelCorpID_0Corel-Layer"/>
  <g id="_2619576622656">
   <path class="fil0 str0" d="M3632.07 5373.12c-3.45,-15.57 -6.84,-31.16 -10.11,-46.74 -18.1,-86.07 -33.2,-173.33 -45.8,-260.4 -28.97,-200.09 -43.99,-404.72 -43.99,-612.86 0,-55.53 1.49,-122.27 4.52,-166.1l1680.51 0c33.36,0 65.11,-16.9 89.32,-44.01 31.44,-35.2 47.87,-83.8 49.26,-132.98 1.51,-53.75 -14.89,-108.22 -49.26,-146.67 -24.21,-27.13 -55.94,-44.01 -89.32,-44.01 -550.59,0 -1101.16,0 -1651.75,0 21.31,-169.57 52.63,-336.03 93.3,-498.76 72.73,-290.76 176.03,-569.83 307.68,-838.45 391.26,-798.12 1026.1,-1451.9 1806.59,-1870.29 494.14,-264.83 1037.83,-429.13 1595.91,-482.21 442.74,-42.11 897.98,-13.75 1332.41,83.15 386.99,86.32 754.03,225.53 1093.17,409.56l-185.81 -8.15 44.39 79.96 -64.44 354.48c-314.09,-172.23 -650.21,-298.14 -997.15,-375.18 -268.9,-59.76 -541.95,-89.61 -817.32,-89.61 -368.56,0 -724.67,52.91 -1061.32,151.43 -331.99,97.64 -656.07,242.85 -962.62,437.96 -232.35,148 -446.44,319.73 -641.36,514.51 -195.72,195.72 -367.21,407.76 -516.12,642.28 -206.08,324.59 -359.94,677.17 -458.53,1044.14l1082.98 0c173.7,0 330.23,37.26 442.47,162.95 106.07,118.82 171.94,290.6 171.94,466.07 0,175.41 -65.89,336.95 -171.94,455.75 -89.71,100.45 -207.65,150.08 -340.04,174.19l425.56 636.03 -583.24 0 -418.94 -626.79 -727.19 0c16.36,215.84 50.91,426.58 102.13,630.74l-485.89 0zm3230.07 -1457.58l1408.32 0c93.86,0 156.7,81.76 158.33,165.22 1.82,92.98 -58.78,173.43 -158.33,173.86l-1408.32 0 0 -339.08zm1408.32 -438.08l-1884.12 0c0,619.5 0,1271.69 0,1891.15l1884.12 0c167.36,0 320.08,-67.24 431.28,-175.53 112.98,-109.93 183.09,-261.79 183.09,-428.85 0,-119.27 -35.75,-230.76 -97.29,-324.82 61.54,-94.06 97.29,-205.55 97.29,-324.82 0,-167.06 -70.12,-331.21 -183.09,-441.17 -111.2,-108.26 -263.92,-195.96 -431.28,-195.96zm-1408.32 1131.91l1408.32 0c104.07,0.45 161.97,90.71 158.93,185.36 -2.74,85.7 -65.46,168.53 -158.93,168.53l-1408.32 0 0 -353.89zm8089.38 759.81l-808.6 -1460.75 -808.58 1460.75 -541.07 0 1059.22 -1907.45c193.64,0 387.25,0 580.87,0l1059.26 1907.45 -541.09 0zm-4426.72 -1903.57l887.85 0c-23.98,-88.67 -51.32,-176.41 -81.88,-263.04 -93.69,-265.86 -218.99,-525.38 -376.81,-773.4 -36.73,-57.71 -74.77,-114.06 -114.08,-169.08l565.99 0c177.13,292.23 319.85,605.44 422.51,940.84 26.72,87.28 51.01,175.94 72.24,264.67l873.4 0 0 471.75 -788.5 0c26.03,213.53 35.57,427.93 29.07,641.2 -5.39,178.31 -22.17,359.53 -49.69,535.37 -13.67,87.32 -30.01,173.74 -48.89,259.2l-486.66 0c8.58,-34.14 16.69,-68.38 24.33,-102.74 25.39,-114.31 45.44,-229.23 60.06,-344.74 32.67,-258.17 38.25,-519.92 17.35,-779.3 -5.66,-70.22 -13.26,-139.9 -22.72,-208.98l-983.58 0 0 -471.75zm-1082.4 1907.43l0 -1900.26 475.8 0 0 1900.26 -475.8 0zm-8482.1 -1909l1088.53 0c262.63,0 501.25,107.28 674.11,280.08 371.15,371.25 371.19,977.01 0,1348.24 -172.82,172.82 -411.46,280.1 -674.11,280.1l-1088.53 0c-262.65,0 -501.29,-107.28 -674.11,-280.1 -371.21,-371.17 -371.17,-977.07 0,-1348.24 172.82,-172.8 411.46,-280.08 674.11,-280.08zm1088.53 475.75l-1088.53 0c-131.32,0 -250.88,53.94 -337.71,140.76 -186.42,186.42 -186.38,488.97 0,675.42 86.83,86.81 206.38,140.7 337.71,140.7l1088.53 0c131.3,0 250.86,-53.89 337.69,-140.7 186.4,-186.4 186.42,-489.03 0,-675.42 -86.83,-86.83 -206.38,-140.76 -337.69,-140.76z"/>
   <path class="fil0 str0" d="M11911.47 5393.47c-42.29,186.71 -96.88,368.76 -162.87,545.22 -149.81,400.65 -362.12,780.61 -624.75,1118.12 -358,459.98 -809.11,843.47 -1322.82,1123.45 -515.96,281.2 -1086.47,452.1 -1671.95,500.72 -569.16,47.23 -1149.62,-21.12 -1691.61,-200.93 -617.64,-204.87 -1186.7,-553.8 -1648.7,-1012.17 -327.43,-324.84 -603.87,-706.53 -810.21,-1118.77 -134.18,-268.12 -239.81,-550.96 -314.28,-841.49 -11.48,-44.7 -22.23,-89.57 -32.2,-134.49l485.89 0 5.17 20.35c25.31,97.84 54.22,194.11 87.3,289.76 94.45,272.97 222.01,539.39 383.92,793.73 147.95,232.41 319.67,446.46 514.53,641.38 253.82,253.84 543.73,471.57 861.37,645.06 311.07,169.12 643.49,293.01 986.53,369.19 268.63,59.8 542.25,89.69 817.41,89.69 622.28,0 1225.48,-150.14 1773.27,-442.98 181.99,-97.27 356.34,-209.53 520.27,-334.87 130.92,-100.62 255.09,-209.55 371.62,-326.08 248.35,-248.39 462.23,-531.24 633.82,-840.76 157.8,-285.94 277.17,-590.24 356.2,-904.46l486.66 0 -4.56 20.35z"/>
   <circle class="fil1 str1" cx="9636.06" cy="890.52" r="878.29"/>
  </g>
 </g>
</svg>
