<?xml version="1.0" encoding="UTF-8"?>
<!-- Generated by Pixelmator Pro 3.4 -->
<svg width="348" height="120" viewBox="0 0 348 120" xmlns="http://www.w3.org/2000/svg">
    <g id="Group">
        <path id="path82" fill="#000000" stroke="none" d="M 229.618622 57.336693 C 229.29863 57.74469 228.877625 58.052689 228.37262 58.260689 C 227.854492 58.471619 227.300049 58.578979 226.740631 58.576691 C 226.18425 58.584229 225.631073 58.491409 225.10762 58.302689 C 224.637482 58.131935 224.207794 57.865677 223.845627 57.520691 C 223.488007 57.175117 223.207245 56.758057 223.021622 56.296692 C 222.820679 55.791313 222.720474 55.251518 222.726624 54.707695 C 222.726624 54.167694 222.819626 53.667694 223.012619 53.193695 C 223.197617 52.718689 223.466629 52.311691 223.803619 51.969688 C 224.140625 51.620689 224.544617 51.354691 224.998627 51.14669 C 225.461624 50.946693 225.966629 50.838692 226.521622 50.838692 C 227.119629 50.838692 227.674622 50.913689 228.179626 51.062691 C 228.684631 51.212692 229.113617 51.462692 229.466629 51.812691 L 228.852631 52.852692 C 228.555664 52.583549 228.205902 52.379211 227.825623 52.252693 C 227.464096 52.136215 227.086456 52.077492 226.706619 52.07869 C 226.370621 52.07869 226.050629 52.144691 225.739624 52.269691 C 225.433151 52.393135 225.153122 52.574051 224.914627 52.802689 C 224.670868 53.037842 224.47879 53.321198 224.350616 53.634689 C 224.207626 53.958694 224.140625 54.316689 224.140625 54.715691 C 224.140625 55.123695 224.215622 55.489693 224.358627 55.805695 C 224.502625 56.130692 224.695618 56.405693 224.939621 56.637695 C 225.183624 56.871689 225.46962 57.045692 225.797623 57.162689 C 226.126617 57.287689 226.471619 57.345695 226.841629 57.345695 C 227.295624 57.345695 227.708618 57.253693 228.06163 57.07869 C 228.411407 56.90976 228.725708 56.67556 228.987625 56.388695 Z M 231.351624 58.401695 L 231.351624 50.996689 L 232.681625 50.996689 L 232.681625 56.513695 L 237.006622 50.996689 L 238.336624 50.996689 L 238.336624 58.402695 L 237.006622 58.402695 L 237.006622 52.885689 L 232.681625 58.402695 L 231.351624 58.402695 Z M 247.146622 57.336693 C 246.819427 57.748123 246.390182 58.066689 245.901627 58.260689 C 245.383102 58.471527 244.828354 58.578873 244.268616 58.576691 C 243.71257 58.584152 243.159744 58.491333 242.636627 58.302689 C 242.166183 58.13195 241.73616 57.865707 241.373627 57.520691 C 241.016006 57.175117 240.735245 56.758057 240.549622 56.296692 C 240.348679 55.791313 240.248474 55.251518 240.254623 54.707695 C 240.254623 54.167694 240.347626 53.667694 240.540619 53.193695 C 240.726624 52.718689 240.995621 52.311691 241.331619 51.969688 C 241.668625 51.620689 242.072617 51.354691 242.526627 51.14669 C 243.006165 50.935516 243.525696 50.830452 244.049622 50.838692 C 244.647614 50.838692 245.202621 50.913689 245.707626 51.062691 C 246.212616 51.212692 246.641617 51.462692 246.995621 51.812691 L 246.380615 52.852692 C 246.084167 52.583389 245.734695 52.379013 245.354614 52.252693 C 244.993073 52.136284 244.615448 52.07756 244.235626 52.07869 C 243.567154 52.080849 242.925156 52.340088 242.442627 52.802689 C 242.200989 53.039619 242.009232 53.32251 241.878616 53.634689 C 241.735626 53.958694 241.668625 54.316689 241.668625 54.715691 C 241.668625 55.123695 241.744629 55.489693 241.887619 55.805695 C 242.030624 56.130692 242.223618 56.405693 242.467621 56.637695 C 242.711624 56.871689 242.998627 57.045692 243.326614 57.162689 C 243.654617 57.278694 243.999619 57.345695 244.369614 57.345695 C 244.824615 57.345695 245.228622 57.253693 245.589615 57.07869 C 245.939407 56.90976 246.253708 56.67556 246.515625 56.388695 Z M 247.828613 50.996689 L 254.652618 50.996689 L 254.652618 52.311691 L 251.909622 52.311691 L 251.909622 58.401695 L 250.57962 58.401695 L 250.57962 52.311691 L 247.836624 52.311691 L 247.836624 50.996689 Z"/>
        <path id="path84" fill="#000000" fill-rule="evenodd" stroke="none" d="M 260.863617 58.32769 C 261.368622 58.169693 261.797607 57.927689 262.167603 57.595695 L 261.763611 56.56369 C 261.519623 56.780693 261.19162 56.963692 260.7966 57.113693 C 260.400604 57.263695 259.95462 57.337692 259.466614 57.337692 C 258.734619 57.337692 258.128601 57.14669 257.648621 56.755692 C 257.169617 56.363693 256.9086 55.815689 256.849609 55.115692 L 262.605621 55.115692 C 262.664612 54.857689 262.689606 54.566689 262.689606 54.225693 C 262.689606 53.71769 262.596619 53.260689 262.411621 52.844688 C 262.23941 52.440727 261.987762 52.075493 261.6716 51.770691 C 261.351105 51.468765 260.973328 51.234146 260.560608 51.080688 C 260.128632 50.913071 259.668976 50.828255 259.205627 50.830688 C 258.582611 50.830688 258.035614 50.93869 257.55661 51.138695 C 257.103729 51.329216 256.694183 51.60952 256.3526 51.962692 C 256.021027 52.313972 255.766296 52.730492 255.604614 53.185692 C 255.426849 53.670441 255.338409 54.183403 255.343613 54.699692 C 255.343613 55.282692 255.444626 55.81469 255.629623 56.289696 C 255.809616 56.749817 256.084961 57.166626 256.437622 57.512695 C 256.782623 57.852692 257.202606 58.111694 257.699615 58.294693 C 258.23172 58.483383 258.793091 58.576157 259.357605 58.568695 C 259.868866 58.565544 260.376678 58.484619 260.863617 58.32869 Z M 257.49762 52.627693 C 257.909607 52.253693 258.456604 52.070694 259.146606 52.070694 C 259.794617 52.070694 260.31662 52.245689 260.695618 52.595695 C 261.074615 52.944695 261.275604 53.427689 261.309601 54.042694 L 256.765625 54.042694 C 256.829987 53.498169 257.090149 52.995621 257.49762 52.628693 Z"/>
        <path id="path86" fill="#000000" stroke="none" d="M 264.498627 50.996689 L 265.710632 50.996689 L 268.588623 54.666695 L 271.314636 50.996689 L 272.492615 50.996689 L 272.492615 58.402695 L 271.163635 58.402695 L 271.163635 53.002693 L 268.571625 56.43869 L 268.52063 56.43869 L 265.828613 53.001694 L 265.828613 58.401695 L 264.498627 58.401695 Z"/>
        <path id="path88" fill="#000000" fill-rule="evenodd" stroke="none" d="M 276.110626 51.02169 C 275.707001 51.127121 275.321411 51.292282 274.966614 51.511688 L 275.319641 52.561691 C 275.62262 52.41169 275.925629 52.28669 276.228638 52.178696 C 276.531616 52.069695 276.91864 52.019691 277.381622 52.019691 C 277.751617 52.019691 278.046631 52.07869 278.273621 52.194695 C 278.500641 52.302689 278.66864 52.469688 278.786621 52.669693 C 278.904633 52.86969 278.980621 53.11869 279.022614 53.409691 C 279.064636 53.700691 279.081635 54.016693 279.081635 54.358688 C 278.809509 54.16906 278.499298 54.041084 278.172638 53.983688 C 277.85672 53.920891 277.535706 53.887421 277.213623 53.88369 C 276.817627 53.88369 276.447632 53.942696 276.093628 54.041695 C 275.740631 54.141693 275.437622 54.291695 275.193634 54.491692 C 274.94455 54.691345 274.743317 54.944183 274.604614 55.231689 C 274.45639 55.546471 274.381531 55.890785 274.38562 56.238693 C 274.38562 56.962692 274.596619 57.528694 275.016632 57.928696 C 275.437622 58.32769 275.992615 58.526695 276.682617 58.526695 C 277.305634 58.526695 277.802643 58.418694 278.180634 58.20269 C 278.559631 57.985695 278.86264 57.736694 279.081635 57.45369 L 279.081635 58.41069 L 280.32663 58.41069 L 280.32663 53.867691 C 280.32663 52.901695 280.116638 52.153694 279.687622 51.628693 C 279.266632 51.104691 278.517639 50.838692 277.457642 50.838692 C 276.985626 50.838692 276.539642 50.904694 276.110626 51.02169 Z M 278.333618 57.02169 C 278.03064 57.237694 277.634613 57.336693 277.146637 57.336693 C 276.717621 57.336693 276.380615 57.228691 276.14563 57.020691 C 275.909637 56.804695 275.791626 56.52169 275.791626 56.171692 C 275.791626 55.964691 275.833618 55.789696 275.926636 55.631691 C 276.019623 55.473694 276.14563 55.348694 276.288635 55.248695 C 276.445068 55.144112 276.618713 55.06794 276.801636 55.023689 C 276.995636 54.973694 277.188629 54.948692 277.390625 54.948692 C 278.047638 54.948692 278.610626 55.106689 279.073639 55.43969 L 279.073639 56.379692 C 278.855438 56.624184 278.60675 56.839615 278.333618 57.020691 Z M 292.06662 48.391693 C 292.335632 48.267693 292.587616 48.059692 292.823639 47.751694 L 292.09964 46.711693 C 291.914642 46.961693 291.70462 47.135689 291.468628 47.227692 C 291.218506 47.325447 290.959229 47.397812 290.694641 47.443695 L 290.442627 47.488693 C 290.223633 47.526695 289.988617 47.568695 289.735626 47.610695 C 289.329895 47.685738 288.934448 47.808594 288.557617 47.976692 C 287.959625 48.234695 287.480621 48.583694 287.118622 49.024689 C 286.756622 49.465691 286.470642 49.964691 286.276642 50.514694 C 286.080109 51.071861 285.947601 51.649574 285.881622 52.236694 C 285.813629 52.836693 285.78064 53.409691 285.78064 53.958694 C 285.78064 54.666695 285.87262 55.306694 286.057617 55.880692 C 286.243622 56.455688 286.503632 56.937691 286.848633 57.32869 C 287.193634 57.728691 287.606628 58.028694 288.094635 58.24469 C 288.582642 58.460693 289.129639 58.568695 289.743622 58.568695 C 290.307617 58.568695 290.82962 58.460693 291.300629 58.260689 C 291.7547 58.068527 292.166534 57.788879 292.512634 57.437691 C 292.848633 57.095695 293.118622 56.687691 293.303619 56.23069 C 293.496613 55.77269 293.58963 55.281693 293.58963 54.765694 C 293.58963 54.208694 293.505615 53.701691 293.345642 53.251694 C 293.198273 52.822685 292.963287 52.429016 292.65564 52.095695 C 292.347321 51.767929 291.970795 51.511894 291.552643 51.345695 C 291.092041 51.164276 290.600616 51.073936 290.105621 51.079689 C 289.785614 51.079689 289.47464 51.121689 289.171631 51.204689 C 288.876892 51.287773 288.593933 51.408073 288.32962 51.562691 C 288.073151 51.709595 287.838226 51.891319 287.631622 52.102692 C 287.429626 52.311691 287.261627 52.544693 287.143616 52.810692 L 287.109619 52.810692 C 287.13562 52.469688 287.177643 52.120689 287.252625 51.762695 C 287.328613 51.404694 287.437622 51.062691 287.581635 50.738693 C 287.72464 50.414696 287.909637 50.122688 288.136627 49.856689 C 288.380035 49.588196 288.678497 49.375359 289.011627 49.232689 C 289.377991 49.058212 289.765625 48.932472 290.164642 48.858688 L 290.428619 48.810692 C 290.69162 48.762695 290.942627 48.71669 291.182617 48.666695 C 291.502625 48.600693 291.796631 48.516693 292.06662 48.392693 Z M 287.387634 55.506691 C 287.257507 55.086578 287.195068 54.64843 287.202637 54.208694 C 287.259003 53.956306 287.361755 53.716583 287.505615 53.501694 C 287.648621 53.276695 287.833618 53.07769 288.052643 52.901695 C 288.546844 52.514519 289.157837 52.306511 289.785614 52.311691 C 290.568634 52.311691 291.157623 52.552689 291.569641 53.027695 C 291.982635 53.509689 292.184631 54.108688 292.184631 54.832695 C 292.184631 55.190689 292.116638 55.515694 291.999634 55.81469 C 291.769867 56.410583 291.308411 56.887917 290.720642 57.137695 C 290.417633 57.270691 290.088623 57.337692 289.718628 57.337692 C 289.348633 57.337692 289.011627 57.262695 288.700623 57.112694 C 288.391541 56.965698 288.118439 56.752693 287.900635 56.488693 C 287.672577 56.194481 287.49884 55.861931 287.387634 55.506691 Z M 303.788635 50.996689 L 302.458618 50.996689 L 302.458618 58.402695 L 303.788635 58.402695 Z M 295.507629 50.996689 L 296.837616 50.996689 L 296.837616 53.218689 L 298.06662 53.218689 C 298.646637 53.218689 299.117615 53.293694 299.496613 53.434692 C 299.875641 53.576691 300.178619 53.767693 300.40564 54.000694 C 300.632629 54.233688 300.792633 54.50869 300.88562 54.815689 C 300.977631 55.123695 301.028625 55.43969 301.028625 55.77269 C 301.028625 56.10569 300.977631 56.422691 300.868622 56.738693 C 300.767639 57.054695 300.590637 57.32869 300.354614 57.57869 C 300.119629 57.82869 299.799622 58.028694 299.39563 58.178696 C 298.991638 58.32769 298.503632 58.41069 297.914642 58.41069 L 295.499634 58.41069 L 295.499634 50.996689 Z M 296.837616 54.457695 L 296.837616 57.170692 L 297.805634 57.170692 C 298.470642 57.170692 298.94162 57.054695 299.210632 56.820694 C 299.480621 56.587692 299.614624 56.255692 299.614624 55.81469 C 299.614624 55.364693 299.471619 55.024689 299.202637 54.790695 C 298.924622 54.557693 298.461639 54.440689 297.822632 54.440689 L 296.837616 54.440689 Z"/>
        <path id="path90" fill="#000000" stroke="none" d="M 312.582611 57.336693 C 312.262604 57.74469 311.841614 58.052689 311.336609 58.260689 C 310.818451 58.471519 310.264008 58.578873 309.70462 58.576691 C 309.148224 58.584229 308.595062 58.491409 308.071625 58.302689 C 307.601349 58.132195 307.1716 57.865913 306.809601 57.520691 C 306.451996 57.174904 306.170959 56.757919 305.984619 56.296692 C 305.784485 55.791107 305.684631 55.251411 305.690613 54.707695 C 305.690613 54.167694 305.782623 53.667694 305.976624 53.193695 C 306.161621 52.718689 306.430603 52.311691 306.767609 51.969688 C 307.104614 51.620689 307.507599 51.354691 307.962616 51.14669 C 308.442139 50.935425 308.96167 50.830353 309.485626 50.838692 C 310.082611 50.838692 310.638611 50.913689 311.143616 51.062691 C 311.648621 51.212692 312.077606 51.462692 312.430603 51.812691 L 311.81662 52.852692 C 311.519653 52.583549 311.169891 52.379211 310.789612 52.252693 C 310.42807 52.136215 310.050446 52.077492 309.670624 52.07869 C 309.334625 52.07869 309.014618 52.144691 308.702606 52.269691 C 308.396454 52.393158 308.11676 52.574081 307.878601 52.802689 C 307.636658 53.039337 307.444824 53.322296 307.314606 53.634689 C 307.1716 53.958694 307.104614 54.316689 307.104614 54.715691 C 307.104614 55.123695 307.179626 55.489693 307.322601 55.805695 C 307.465607 56.130692 307.659607 56.405693 307.903625 56.637695 C 308.147614 56.871689 308.433624 57.045692 308.761627 57.162689 C 309.090607 57.278694 309.435608 57.345695 309.805603 57.345695 C 310.259613 57.345695 310.663605 57.253693 311.025604 57.07869 C 311.375397 56.90976 311.689697 56.67556 311.951599 56.388695 Z M 313.263611 50.996689 L 320.088623 50.996689 L 320.088623 52.311691 L 317.344604 52.311691 L 317.344604 58.401695 L 316.015625 58.401695 L 316.015625 52.311691 L 313.272614 52.311691 L 313.272614 50.996689 Z"/>
        <path id="path92" fill="#000000" fill-rule="evenodd" stroke="none" d="M 322.865601 50.997688 L 321.535614 50.997688 L 321.535614 61.697693 L 322.865601 61.697693 L 322.865601 58.061691 C 323.134613 58.236694 323.45462 58.361694 323.824615 58.444695 C 324.194611 58.527695 324.581604 58.568695 324.9776 58.568695 C 325.56662 58.568695 326.096619 58.460693 326.576599 58.261688 C 327.036987 58.064766 327.454193 57.779373 327.804626 57.421692 C 328.149597 57.062691 328.410614 56.64669 328.595612 56.155693 C 328.780609 55.665695 328.873627 55.140694 328.873627 54.583694 C 328.873627 54.033691 328.789612 53.526695 328.629608 53.068695 C 328.478943 52.633736 328.244537 52.232513 327.939606 51.887695 C 327.64035 51.551376 327.269165 51.286827 326.853607 51.113693 C 326.399414 50.918503 325.908905 50.822037 325.414612 50.830688 C 324.893616 50.830688 324.405609 50.930695 323.942627 51.130692 C 323.479614 51.330688 323.117615 51.570694 322.865601 51.870689 Z M 323.791626 52.370689 C 324.170624 52.170692 324.582611 52.070694 325.028625 52.070694 C 325.415619 52.070694 325.76062 52.128693 326.072601 52.253693 C 326.37561 52.378693 326.627625 52.553696 326.838623 52.78669 C 327.048615 53.019691 327.208618 53.28669 327.309601 53.601692 C 327.41861 53.917694 327.469604 54.259689 327.469604 54.63369 C 327.469604 55.033691 327.401611 55.390694 327.284607 55.723694 C 327.174316 56.039413 326.999237 56.328598 326.770599 56.572693 C 326.540955 56.81385 326.262878 57.003677 325.95462 57.129692 C 325.610962 57.273621 325.241119 57.34446 324.868622 57.337692 C 324.507599 57.337692 324.170624 57.296692 323.850616 57.213692 C 323.500275 57.11837 323.167877 56.966362 322.866608 56.763695 L 322.866608 53.093689 C 323.101624 52.811691 323.413605 52.570694 323.791626 52.370689 Z M 339.072601 50.996689 L 337.742615 50.996689 L 337.742615 58.402695 L 339.072601 58.402695 Z M 330.7836 50.996689 L 332.113617 50.996689 L 332.113617 53.218689 L 333.341614 53.218689 C 333.922607 53.218689 334.393616 53.293694 334.772614 53.434692 C 335.151611 53.576691 335.45462 53.767693 335.68161 54.000694 C 335.9086 54.233688 336.068604 54.50869 336.160614 54.815689 C 336.253601 55.123695 336.303619 55.43969 336.303619 55.77269 C 336.303619 56.10569 336.253601 56.422691 336.144623 56.738693 C 336.04361 57.054695 335.866608 57.32869 335.630615 57.57869 C 335.395599 57.82869 335.075623 58.028694 334.6716 58.178696 C 334.267609 58.32769 333.779602 58.41069 333.190613 58.41069 L 330.775604 58.41069 L 330.775604 50.996689 Z M 332.12262 54.457695 L 332.12262 57.170692 L 333.090607 57.170692 C 333.754608 57.170692 334.226624 57.054695 334.495605 56.820694 C 334.764618 56.587692 334.899597 56.255692 334.899597 55.81469 C 334.899597 55.364693 334.756622 55.024689 334.48761 54.790695 C 334.209625 54.557693 333.746613 54.440689 333.107605 54.440689 L 332.12262 54.440689 Z"/>
        <path id="path94" fill="#000000" stroke="none" d="M 345.451599 54.566689 L 348.295624 58.402695 L 346.663605 58.402695 L 344.466614 55.406693 L 342.236603 58.402695 L 340.688599 58.402695 L 343.515625 54.63269 L 340.856598 50.996689 L 342.489624 50.996689 L 344.517609 53.792694 L 346.578613 50.996689 L 348.127625 50.996689 Z M 228.634613 67.555695 L 224.553619 67.555695 L 224.553619 73.729691 L 223.223618 73.729691 L 223.223618 66.324692 L 229.963623 66.324692 L 229.963623 73.729691 L 228.634613 73.729691 Z M 237.511612 67.638695 L 234.886612 67.638695 L 234.80162 68.886688 C 234.70961 69.943695 234.583618 70.792694 234.406616 71.440689 C 234.229614 72.090691 234.01062 72.589691 233.758621 72.93869 C 233.506622 73.288689 233.211609 73.529694 232.874619 73.64669 C 232.526978 73.772751 232.159363 73.834755 231.789612 73.829689 L 231.688614 72.547691 C 231.831619 72.555695 231.999619 72.52269 232.184616 72.43969 C 232.370621 72.356689 232.555618 72.173691 232.731613 71.899689 C 232.908615 71.615692 233.068619 71.21669 233.211609 70.700691 C 233.354614 70.176689 233.447617 69.49469 233.49762 68.636688 L 233.632614 66.331696 L 238.841614 66.331696 L 238.841614 73.737694 L 237.511612 73.737694 L 237.511612 67.637695 Z"/>
        <path id="path96" fill="#000000" fill-rule="evenodd" stroke="none" d="M 242.42662 66.34169 C 241.996613 66.457695 241.609619 66.623695 241.281616 66.831696 L 241.63562 67.880692 C 241.938629 67.73069 242.241623 67.60569 242.54361 67.497688 C 242.846619 67.389694 243.234619 67.339691 243.696625 67.339691 C 244.067627 67.339691 244.361618 67.39769 244.588623 67.513695 C 244.81662 67.622688 244.984619 67.788689 245.102615 67.988693 C 245.21962 68.18869 245.295624 68.43869 245.337616 68.728691 C 245.379623 69.020691 245.396622 69.336693 245.396622 69.677689 C 245.124466 69.488335 244.81424 69.360695 244.487625 69.303696 C 244.171722 69.240845 243.850693 69.207367 243.528625 69.20369 C 243.133621 69.20369 242.762619 69.261688 242.409622 69.361694 C 242.055618 69.461693 241.752625 69.611694 241.508621 69.811691 C 241.259552 70.011345 241.058304 70.264183 240.919617 70.551689 C 240.771729 70.866554 240.697205 71.210861 240.70163 71.558693 C 240.70163 72.281693 240.911621 72.848694 241.332611 73.247688 C 241.752625 73.64669 242.308624 73.846695 242.998627 73.846695 C 243.621613 73.846695 244.117615 73.738693 244.496613 73.52169 C 244.874619 73.305695 245.177628 73.055695 245.396622 72.77269 L 245.396622 73.729691 L 246.642624 73.729691 L 246.642624 69.186691 C 246.642624 68.221695 246.431625 67.472694 246.002625 66.948692 C 245.581619 66.423691 244.832626 66.158691 243.772614 66.158691 C 243.317841 66.159073 242.865173 66.220284 242.42662 66.340691 Z M 244.656616 72.339691 C 244.354614 72.556694 243.958618 72.656693 243.470627 72.656693 C 243.032623 72.656693 242.70462 72.548691 242.46962 72.339691 C 242.233612 72.123695 242.115631 71.840691 242.115631 71.491692 C 242.115631 71.283691 242.157623 71.108688 242.25061 70.950691 C 242.342621 70.792694 242.46962 70.667694 242.61261 70.567696 C 242.755615 70.46769 242.93161 70.392693 243.125626 70.34269 C 243.317993 70.293015 243.51593 70.268143 243.714615 70.268692 C 244.370621 70.268692 244.934616 70.426689 245.397614 70.75869 L 245.397614 71.698692 C 245.179077 71.943199 244.930038 72.15863 244.656616 72.339691 Z"/>
        <path id="path98" fill="#000000" stroke="none" d="M 247.945618 66.324692 L 254.770615 66.324692 L 254.770615 67.638695 L 252.026627 67.638695 L 252.026627 73.729691 L 250.697617 73.729691 L 250.697617 67.639694 L 247.95462 67.639694 L 247.95462 66.324692 Z"/>
        <path id="path100" fill="#000000" fill-rule="evenodd" stroke="none" d="M 260.981598 73.654694 C 261.486603 73.496689 261.915619 73.254692 262.285614 72.922691 L 261.881622 71.890694 C 261.637604 72.107689 261.309601 72.290695 260.913605 72.440689 C 260.518616 72.590691 260.072601 72.664696 259.584625 72.664696 C 258.8526 72.664696 258.246613 72.473694 257.766602 72.082695 C 257.286621 71.691689 257.026611 71.142693 256.967621 70.442696 L 262.723602 70.442696 C 262.781616 70.185692 262.807617 69.893692 262.807617 69.552689 C 262.807617 69.045692 262.7146 68.587692 262.529602 68.171692 C 262.3573 67.767822 262.105286 67.402878 261.788605 67.098694 C 261.46875 66.796196 261.091248 66.561195 260.678619 66.407692 C 260.246613 66.240158 259.786957 66.155357 259.323608 66.157692 C 258.700623 66.157692 258.153625 66.265694 257.674622 66.465691 C 257.221497 66.655746 256.811829 66.936119 256.470612 67.289696 C 256.139069 67.641182 255.884033 68.057625 255.721619 68.512695 C 255.544312 68.997566 255.455902 69.510437 255.460617 70.026695 C 255.460617 70.609695 255.561615 71.141693 255.746613 71.616692 C 255.932617 72.090691 256.209625 72.498695 256.554626 72.839691 C 256.899597 73.180695 257.320618 73.43869 257.817627 73.621689 C 258.349304 73.81073 258.910339 73.903847 259.474609 73.89669 C 259.971619 73.89669 260.476624 73.812691 260.981598 73.654694 Z M 257.607605 67.946693 C 258.019623 67.572693 258.56662 67.389694 259.256622 67.389694 C 259.913605 67.389694 260.426605 67.572693 260.805603 67.913689 C 261.183624 68.263695 261.38562 68.745689 261.419617 69.361694 L 256.87561 69.361694 C 256.939758 68.816811 257.199951 68.313873 257.607605 67.946693 Z M 263.455627 66.324692 L 265.138611 66.324692 L 267.70462 69.894691 L 264.961609 73.729691 L 263.32962 73.729691 L 266.206604 69.893692 L 263.455627 66.323692 Z M 268.032623 66.324692 L 269.36261 66.324692 L 269.36261 73.729691 L 268.032623 73.729691 Z M 274.116608 73.729691 L 271.188599 69.893692 L 273.923615 66.323692 L 272.273621 66.323692 L 269.690613 69.893692 L 272.467621 73.729691 Z M 280.192627 73.654694 C 280.697601 73.496689 281.126617 73.254692 281.496613 72.922691 L 281.092621 71.890694 C 280.848602 72.107689 280.520599 72.290695 280.12561 72.440689 C 279.729614 72.590691 279.2836 72.664696 278.795624 72.664696 C 278.063599 72.664696 277.457611 72.473694 276.9776 72.082695 C 276.498627 71.691689 276.23761 71.142693 276.178619 70.442696 L 281.934601 70.442696 C 281.993622 70.185692 282.018616 69.893692 282.018616 69.552689 C 282.018616 69.045692 281.926605 68.587692 281.740601 68.171692 C 281.568298 67.768066 281.31665 67.403183 281.00061 67.098694 C 280.680389 66.796173 280.302551 66.561172 279.889618 66.407692 C 279.457642 66.240067 278.997955 66.155258 278.534607 66.157692 C 277.912598 66.157692 277.365601 66.265694 276.88562 66.465691 C 276.432922 66.656013 276.023651 66.936356 275.682617 67.289696 C 275.350403 67.640663 275.095245 68.057251 274.933624 68.512695 C 274.755829 68.997437 274.667419 69.510399 274.672607 70.026695 C 274.672607 70.609695 274.773621 71.141693 274.958618 71.616692 C 275.143616 72.090691 275.4216 72.498695 275.766602 72.839691 C 276.111603 73.180695 276.531616 73.43869 277.028625 73.621689 C 277.560669 73.810722 278.12204 73.903839 278.686615 73.89669 C 279.197968 73.892899 279.705811 73.811295 280.192627 73.654694 Z M 276.818604 67.946693 C 277.231598 67.572693 277.778625 67.389694 278.468597 67.389694 C 279.116608 67.389694 279.637604 67.572693 280.016602 67.913689 C 280.395599 68.263695 280.597626 68.745689 280.630615 69.361694 L 276.086609 69.361694 C 276.150757 68.816811 276.41095 68.313873 276.818604 67.946693 Z M 287.413605 63.836693 C 286.630615 63.836693 286.201599 63.403694 286.134613 62.538689 L 284.880615 62.538689 C 284.880615 62.870689 284.939606 63.170692 285.048615 63.45369 C 285.1586 63.736694 285.318604 63.977692 285.528625 64.177689 C 285.738617 64.377693 286.008606 64.53569 286.319611 64.659691 C 286.630615 64.784691 286.992615 64.84269 287.404602 64.84269 C 287.7836 64.84269 288.120605 64.784691 288.423615 64.659691 C 288.726624 64.543694 288.978607 64.377693 289.197601 64.177689 C 289.407623 63.977692 289.576599 63.736694 289.693604 63.45369 C 289.811615 63.170692 289.870605 62.870689 289.870605 62.538689 L 288.62561 62.538689 C 288.56662 63.403694 288.153625 63.836693 287.413605 63.836693 Z M 283.819611 66.323692 L 283.819611 73.729691 L 285.149597 73.729691 L 289.474609 68.212692 L 289.474609 73.729691 L 290.804626 73.729691 L 290.804626 66.323692 L 289.474609 66.323692 L 285.149597 71.840691 L 285.149597 66.323692 Z"/>
    </g>
    <g id="g1">
        <path id="path60" fill="#000000" stroke="none" d="M 205.664627 50.253693 L 205.664627 79.59169 L 195.188614 79.59169 L 195.188614 59.011688 L 185.101624 59.011688 L 185.101624 79.59169 L 174.625626 79.59169 L 174.625626 50.251694 L 205.664627 50.251694 Z"/>
        <path id="path62" fill="#000000" fill-rule="evenodd" stroke="none" d="M 153.110626 80.640694 C 162.488617 80.640694 169.452621 74.890694 169.452621 66.173691 C 169.452621 57.736694 164.314621 52.258698 155.727615 52.258698 C 151.764618 52.258698 148.494614 53.653687 146.031616 56.060692 C 146.619614 51.085693 150.826614 47.45369 155.458618 47.45369 C 156.527618 47.45369 164.575623 47.436691 164.575623 47.436691 L 169.126617 38.727692 C 169.126617 38.727692 159.022614 38.957687 154.325623 38.957687 C 143.593613 39.144691 136.34462 48.899689 136.34462 60.747696 C 136.34462 74.55069 143.414627 80.640694 153.110626 80.640694 Z M 153.167618 59.972687 C 156.649612 59.972687 159.063614 62.260696 159.063614 66.172691 C 159.063614 69.693695 156.918625 72.594696 153.167618 72.602692 C 149.57962 72.602692 147.165619 69.914688 147.165619 66.232697 C 147.165619 62.319687 149.57962 59.972687 153.167618 59.972687 Z"/>
        <path id="path64" fill="#000000" stroke="none" d="M 127.817627 69.769691 C 127.817627 69.769691 125.34362 71.195694 121.648621 71.465691 C 117.40062 71.59169 113.615623 68.908691 113.615623 64.141693 C 113.615623 59.491692 116.95562 56.826691 121.541618 56.826691 C 124.353622 56.826691 128.073624 58.775696 128.073624 58.775696 C 128.073624 58.775696 130.795624 53.780693 132.205627 51.282692 C 129.623627 49.325691 126.184624 48.252693 122.184624 48.252693 C 112.089622 48.252693 104.270622 54.834686 104.270622 64.082687 C 104.270622 73.448692 111.619621 79.877693 122.184624 79.683693 C 125.137619 79.573692 129.211624 78.536697 131.694626 76.941696 Z"/>
    </g>
    <g id="g2">
        <path id="path66" fill="#5b57a2" stroke="none" d="M 0 26.120003 L 14.532 52.095001 L 14.532 67.939003 L 0.017 93.862999 L 0 26.120003 Z"/>
        <path id="path68" fill="#d90751" stroke="none" d="M 55.797001 42.643005 L 69.414001 34.296997 L 97.281998 34.270996 L 55.797001 59.685001 L 55.797001 42.643005 Z"/>
        <path id="path70" fill="#fab718" stroke="none" d="M 55.720001 25.966995 L 55.797001 60.356998 L 41.230999 51.406998 L 41.230999 0 L 55.721001 25.966995 Z"/>
        <path id="path72" fill="#ed6f26" stroke="none" d="M 97.281998 34.270996 L 69.413002 34.296997 L 55.720001 25.966995 L 41.230999 0 L 97.280998 34.270996 Z"/>
        <path id="path74" fill="#63b22f" stroke="none" d="M 55.797001 94.007004 L 55.797001 77.321999 L 41.230999 68.542 L 41.238998 120 L 55.797001 94.007004 Z"/>
        <path id="path76" fill="#1487c9" stroke="none" d="M 69.379997 85.737 L 14.531 52.095001 L 0 26.120003 L 97.223 85.703003 L 69.378998 85.737 Z"/>
        <path id="path78" fill="#017f36" stroke="none" d="M 41.240002 120 L 55.796001 94.007004 L 69.378998 85.737 L 97.222 85.703003 L 41.240002 120 Z"/>
        <path id="path80" fill="#984995" stroke="none" d="M 0.017 93.862999 L 41.349998 68.542999 L 27.454 60.016998 L 14.532 67.939003 L 0.017 93.862999 Z"/>
    </g>
</svg>
