<?xml version="1.0" standalone="no"?>
<!DOCTYPE svg PUBLIC "-//W3C//DTD SVG 20010904//EN"
 "http://www.w3.org/TR/2001/REC-SVG-20010904/DTD/svg10.dtd">
<svg version="1.0" xmlns="http://www.w3.org/2000/svg"
 width="700.000000pt" height="700.000000pt" viewBox="0 0 700.000000 700.000000"
 preserveAspectRatio="xMidYMid meet">
<metadata>
Created by potrace 1.14, written by Peter Selinger 2001-2017
</metadata>
<g transform="translate(0.000000,700.000000) scale(0.100000,-0.100000)"
fill="#000000" stroke="none">
<path d="M3320 5515 c-8 -2 -55 -9 -105 -15 -128 -18 -310 -70 -449 -128 -812
-345 -1274 -1228 -1095 -2094 144 -698 682 -1261 1369 -1433 294 -74 630 -74
919 -1 339 86 644 264 887 518 392 411 574 957 508 1523 l-7 55 -245 0 -244 0
6 -22 c20 -74 29 -266 18 -381 -33 -349 -173 -641 -424 -883 -204 -196 -455
-322 -736 -369 -153 -26 -398 -17 -542 19 -272 69 -489 194 -678 391 -191 198
-305 415 -364 688 -31 145 -31 399 0 544 59 272 174 490 364 688 190 198 407
322 684 392 101 25 125 27 309 28 206 0 264 -7 410 -52 l60 -19 -3 -94 c-10
-262 118 -484 348 -604 94 -49 177 -69 295 -68 177 0 330 67 454 197 188 199
232 477 112 721 -48 97 -135 195 -225 253 -184 120 -430 134 -631 36 l-70 -34
-90 34 c-99 37 -217 69 -340 92 -73 14 -455 28 -495 18z"/>
</g>
</svg>
