<?xml version="1.0" encoding="UTF-8"?>
<!-- Generated by Pixelmator Pro 3.4.3 -->
<svg width="933" height="207" viewBox="0 0 933 207" xmlns="http://www.w3.org/2000/svg">
    <g id="Group">
        <path id="Path" fill="#00aff0" stroke="none" d="M 531.313721 3.755676 L 531.313721 27.11496 C 501.981323 24.448364 483.395264 38.66124 483.395264 67.940323 L 483.395264 159.057449 L 458.542725 159.057449 L 458.542725 68.526978 C 458.542725 22.381775 491.381714 -0.977509 531.313721 3.755676 Z"/>
        <path id="path1" fill="#00aff0" stroke="none" d="M 663.096313 111.725601 C 652.429932 144.257935 626.404114 162.604004 591.2052 162.604004 C 547.433228 162.604004 513.114319 127.698456 513.114319 83.033188 C 513.114319 38.954575 547.433228 2.862366 589.72522 2.862366 C 629.070679 2.862366 666.936157 35.40802 666.642822 89.526306 L 538.553528 89.526306 C 541.806763 121.17865 566.059326 139.818069 591.2052 139.818069 C 612.804504 139.818069 628.190735 129.458389 636.470398 111.71228 Z M 638.830383 67.060349 C 632.617188 42.207809 611.911194 25.648346 589.72522 25.648346 C 568.725891 25.648346 546.539917 41.021179 540.033447 67.060349 Z"/>
        <path id="path2" fill="#00aff0" stroke="none" d="M 781.999207 6.715576 L 751.333496 6.715576 L 720.667786 51.140854 L 736.040588 73.446823 Z M 729.480835 82.913177 L 729.480835 82.913177 L 714.121277 60.673889 L 714.121277 60.673889 L 676.989136 6.715576 L 646.216797 6.715576 L 698.748474 82.913177 L 646.216797 159.124115 L 676.989136 159.124115 L 714.14801 105.219162 L 714.14801 105.219162 L 729.507507 82.926529 Z M 720.641113 114.698868 L 751.306824 159.124115 L 781.972534 159.124115 L 735.987305 92.392883 Z"/>
        <path id="path3" fill="#00aff0" stroke="none" d="M 895.142273 6.715576 L 864.476563 6.715576 L 833.810913 51.140854 L 849.17041 73.446823 Z M 842.610596 82.913177 L 842.610596 82.913177 L 827.251099 60.673889 L 827.251099 60.673889 L 790.092285 6.715576 L 759.359924 6.715576 L 811.878235 82.913177 L 759.359924 159.124115 L 790.092285 159.124115 L 827.251099 105.219162 L 827.251099 105.219162 L 842.623901 82.926529 Z M 833.78418 114.698868 L 864.44989 159.124115 L 895.195618 159.124115 L 849.197021 92.392883 Z"/>
        <path id="path4" fill="#00aff0" stroke="none" d="M 917.528198 -0.430847 C 923.790283 -0.430847 929.435547 3.342072 931.83075 9.127991 C 934.22583 14.91394 932.899048 21.572998 928.469177 25.999054 C 924.039307 30.42511 917.37915 31.746185 911.595215 29.346039 C 905.811401 26.945892 902.043335 21.297424 902.048706 15.035309 C 902.063477 6.494476 908.987366 -0.423523 917.528198 -0.430847 Z M 917.528198 27.021606 C 922.423401 27.233948 926.955872 24.448761 928.978149 19.985809 C 931.000366 15.522858 930.10614 10.278687 926.718994 6.73819 C 923.33197 3.197693 918.132507 2.072113 913.584412 3.894806 C 909.036316 5.717468 906.053223 10.122253 906.048584 15.022003 C 905.94812 18.144348 907.108276 21.175812 909.267822 23.433167 C 911.427429 25.690521 914.404541 26.983826 917.528198 27.021606 Z M 911.56842 6.768921 L 916.768311 6.768921 C 920.514832 6.768921 924.088074 7.635559 924.088074 11.55545 C 924.25647 13.888153 922.709778 15.999237 920.434875 16.541962 L 924.594727 22.98175 L 920.234863 22.98175 L 916.528259 16.75528 L 915.568298 16.75528 L 915.568298 22.98175 L 911.56842 22.98175 Z M 915.568298 13.502045 L 917.514954 13.502045 C 918.514954 13.502045 920.181519 13.502045 920.181519 11.755432 C 920.181519 10.00882 918.554871 10.00882 917.514954 10.00882 L 915.568298 10.00882 Z"/>
        <path id="path5" fill="#00aff0" stroke="none" d="M 320.280396 7.928894 L 348.62619 7.928894 L 389.731537 121.471985 L 434.103455 7.928894 L 461.729248 7.928894 L 380.745148 207.109283 L 353.666016 207.109283 L 374.598694 154.164276 Z"/>
        <path id="path6" fill="#00aff0" stroke="none" d="M 288.774719 7.928894 L 288.774719 23.781708 C 274.86853 10.403931 256.299133 2.96759 237.003021 3.049042 C 193.804382 3.049042 160.378769 39.141235 160.378769 83.513184 C 160.378769 127.285141 193.804382 162.79068 237.003021 162.79068 C 256.237732 162.889542 274.772247 155.579819 288.761414 142.377975 L 288.761414 159.057449 L 313.613922 159.057449 L 313.613922 7.928894 Z M 237.003021 139.711395 C 208.897247 139.711395 185.817963 114.565521 185.817963 83.513184 C 185.817963 51.86084 208.897247 26.181641 237.003021 26.181641 C 265.388794 26.181641 288.468079 51.914169 288.468079 83.513184 C 288.481384 114.565521 265.40213 139.711395 237.003021 139.711395 Z"/>
        <path id="path7" fill="#00aff0" stroke="none" d="M 76.27475 3.049042 C 56.968292 2.999695 38.402313 10.474854 24.51638 23.888397 L 24.51638 7.888885 L -0.322838 7.888885 L -0.322838 207.082611 L 24.51638 207.082611 L 24.51638 142.271317 C 38.488075 155.513229 57.025047 162.862122 76.27475 162.79068 C 119.766724 162.79068 152.899002 127.285141 152.899002 83.513184 C 152.899002 39.141235 119.766724 3.049042 76.27475 3.049042 Z M 76.27475 139.711395 C 48.182304 139.711395 25.103027 114.565521 25.103027 83.513184 C 25.103027 51.86084 48.182304 26.181641 76.27475 26.181641 C 104.673859 26.181641 127.753128 51.914169 127.753128 83.513184 C 127.753128 114.565521 104.673859 139.711395 76.27475 139.711395 Z"/>
    </g>
</svg>
