<?xml version="1.0" encoding="UTF-8"?>
<svg width="431" height="132" viewBox="0 0 431 132" xmlns="http://www.w3.org/2000/svg">
    <path id="Path" fill="#333333" stroke="none" d="M 214.630432 56.030899 C 211.6604 54.888397 207.776001 54.545876 203.549103 54.545876 L 180.013519 54.545876 L 180.013519 47.234009 L 220.457306 47.234009 L 220.457306 34.667099 L 163.447876 34.667099 L 163.447876 89.048424 L 202.063507 89.048424 C 207.433502 89.048424 211.431091 88.59153 214.402283 87.448463 C 220.686035 85.049095 224.912933 79.222816 224.912933 71.568413 C 224.912933 63.800232 220.914185 58.43026 214.630432 56.030899 Z M 206.404785 74.881554 C 205.491028 75.224648 204.234161 75.338432 202.634186 75.338432 L 180.013519 75.338432 L 180.013519 66.655907 L 202.634186 66.655907 C 204.462891 66.655907 205.947327 66.770844 207.090393 67.341522 C 208.46106 68.02713 209.146667 69.283997 209.146667 70.882805 C 209.146667 72.482185 208.34726 74.19593 206.404785 74.881554 Z"/>
    <path id="path1" fill="#333333" stroke="none" d="M 271.361115 34.667099 L 247.141083 34.667099 L 224.862915 89.048424 L 243.599792 89.048424 L 246.684174 81.165291 L 271.818024 81.165291 L 275.017365 89.048424 L 293.639862 89.048424 L 271.361115 34.667099 Z M 250.796722 69.16906 L 258.68042 47.234009 L 259.936707 47.234009 L 267.819824 69.16906 L 250.796722 69.16906 Z"/>
    <path id="path2" fill="#333333" stroke="none" d="M 314.962494 68.827065 L 314.962494 89.048302 L 298.397369 89.048302 L 298.397369 34.66687 L 314.962494 34.66687 L 314.962494 54.545822 L 341.582123 54.545822 L 341.582123 34.66687 L 358.148163 34.66687 L 358.148163 89.048302 L 341.582123 89.048302 L 341.582123 68.827065 L 314.962494 68.827065 Z"/>
    <path id="path3" fill="#333333" stroke="none" d="M 384.369232 68.484169 L 384.369232 89.048302 L 367.803223 89.048302 L 367.803223 34.66687 L 384.369232 34.66687 L 384.369232 55.117088 L 388.939148 55.117088 L 408.932373 34.66687 L 429.724518 34.66687 L 403.219788 60.715057 L 430.753235 89.048302 L 408.703491 89.048302 L 388.939148 68.484169 L 384.369232 68.484169 Z"/>
    <path id="path4" fill="#ffdd2d" stroke="none" d="M 0.304909 -0.291855 L 132.37265 -0.291855 L 132.37265 66.128586 C 132.37265 83.155861 123.289078 98.89019 108.543869 107.404716 L 66.338806 131.775726 L 24.13382 107.404716 C 9.388298 98.89019 0.304909 83.155861 0.304909 66.128586 L 0.304909 -0.291855 Z"/>
    <path id="path5" fill="#333333" fill-rule="evenodd" stroke="none" d="M 36.550194 34.66687 L 36.550194 55.325027 C 39.375114 52.135025 44.511299 49.976044 50.383881 49.976044 L 56.765732 49.976044 L 56.765732 73.990929 C 56.765732 80.380013 55.0298 85.972298 52.454117 89.048302 L 80.213791 89.048302 C 77.643509 85.96917 75.911545 80.38398 75.911545 74.00312 L 75.911545 49.976044 L 82.293686 49.976044 C 88.16626 49.976044 93.302307 52.135025 96.127365 55.325027 L 96.127365 34.66687 L 36.550194 34.66687 Z"/>
</svg>
